<svg width="40" height="40" viewBox="0 0 40 40" fill="none" xmlns="http://www.w3.org/2000/svg">
<path d="M5 35H35" stroke="white" stroke-width="2" stroke-linecap="round"/>
<path d="M5 30H35" stroke="white" stroke-width="2" stroke-linecap="round"/>
<path d="M7.5 20.8333C7.5 13.9298 13.0964 8.33334 20 8.33334C26.9036 8.33334 32.5 13.9298 32.5 20.8333V30H7.5V20.8333Z" fill="white" stroke="white" stroke-width="2" stroke-linecap="round" stroke-linejoin="round"/>
<path d="M14.1667 20.8333V24.1667" stroke="#FF9800" stroke-width="2" stroke-linecap="round"/>
<path d="M23.3334 8.33334V6.66668C23.3334 4.82573 21.8409 3.33334 20 3.33334C18.1591 3.33334 16.6667 4.82573 16.6667 6.66668V8.33334" fill="white"/>
<path d="M23.3334 8.33334V6.66668C23.3334 4.82573 21.8409 3.33334 20 3.33334C18.1591 3.33334 16.6667 4.82573 16.6667 6.66668V8.33334" stroke="white" stroke-width="2"/>
</svg>
