<svg width="40" height="40" viewBox="0 0 40 40" fill="none" xmlns="http://www.w3.org/2000/svg">
<path d="M37.3913 4.45953H34.5094V2.74524C34.5094 1.70236 33.664 0.856995 32.6211 0.856995H7.37889C6.33601 0.856995 5.49064 1.70236 5.49064 2.74524V4.45953H2.6087C1.16795 4.45953 0 5.62748 0 7.06823C0 8.50898 1.16795 9.67693 2.6087 9.67693H5.49064V9.82749C5.49064 17.7456 11.9867 24.1644 19.9999 24.1644C28.0133 24.1644 34.5092 17.7456 34.5092 9.82749V9.67693H37.3912C38.8319 9.67693 39.9999 8.50898 39.9999 7.06823C40 5.62748 38.8321 4.45953 37.3913 4.45953Z" fill="white"/>
<path d="M28.062 35.5901H11.938C10.957 35.5901 10.1616 36.3854 10.1616 37.3666C10.1616 38.3477 10.9568 39.143 11.938 39.143H28.062C29.043 39.143 29.8384 38.3477 29.8384 37.3666C29.8384 36.3854 29.043 35.5901 28.062 35.5901Z" fill="white"/>
<path d="M20.331 25.5602C20.242 25.5174 20.1351 25.5411 20.0728 25.6177C19.4697 26.359 18.0979 27.6735 18.3248 29.3535C18.583 31.2655 19.7523 32.251 19.5171 33.4862C19.4835 33.6619 19.571 33.8387 19.7311 33.9186C19.8912 33.9987 20.0849 33.9626 20.2056 33.8304C21.1166 32.8331 22.0505 31.4108 21.5694 30.1126C20.8418 28.1488 20.1274 27.2772 20.4473 25.7978C20.468 25.7014 20.42 25.6031 20.331 25.5602Z" fill="white"/>
<path d="M25.7186 25.5602C25.6296 25.5174 25.5227 25.5411 25.4604 25.6177C24.8573 26.359 23.4856 27.6735 23.7124 29.3535C23.9706 31.2655 25.1399 32.251 24.9047 33.4862C24.8712 33.6619 24.9587 33.8387 25.1188 33.9186C25.2789 33.9987 25.4725 33.9626 25.5932 33.8304C26.5042 32.8331 27.4381 31.4108 26.9571 30.1126C26.2295 28.1488 25.515 27.2772 25.8349 25.7978C25.8556 25.7014 25.8076 25.6031 25.7186 25.5602Z" fill="white"/>
<path d="M14.9433 25.5602C14.8543 25.5174 14.7475 25.5411 14.6852 25.6177C14.082 26.359 12.7103 27.6735 12.9372 29.3535C13.1954 31.2655 14.3647 32.251 14.1294 33.4862C14.0959 33.6619 14.1834 33.8387 14.3435 33.9186C14.5036 33.9987 14.6972 33.9626 14.818 33.8304C15.7289 32.8331 16.6628 31.4108 16.1818 30.1126C15.4542 28.1488 14.7397 27.2772 15.0596 25.7978C15.0805 25.7014 15.0323 25.6031 14.9433 25.5602Z" fill="white"/>
</svg>
