<svg width="40" height="40" viewBox="0 0 40 40" fill="none" xmlns="http://www.w3.org/2000/svg">
<g clip-path="url(#clip0_20_239)">
<path d="M25.5815 12.4328L6.75116 31.2713C6.20453 31.8179 6.20453 32.7072 6.75116 33.2539C7.0204 33.5231 7.37938 33.6618 7.73837 33.6618C8.09735 33.6618 8.45633 33.5231 8.72557 33.2539L27.5559 14.4236C28.1025 13.8769 28.1025 12.9876 27.5559 12.441C27.0174 11.8862 26.1281 11.8862 25.5815 12.4328Z" fill="white"/>
<path d="M35.1761 15.6555C35.5351 15.6555 35.8941 15.5168 36.1633 15.2476L38.2193 13.1916C40.5935 10.8174 40.5935 6.95832 38.2193 4.59229L35.4127 1.7857C34.2624 0.635316 32.7367 0.00709534 31.1131 0.00709534C29.4895 0.00709534 27.9638 0.643475 26.8134 1.7857L24.7574 3.84169C24.2108 4.38833 24.2108 5.27763 24.7574 5.82426L34.1889 15.2557C34.4582 15.5168 34.8172 15.6555 35.1761 15.6555Z" fill="white"/>
<path d="M13.2863 38.1165L33.1528 18.25C33.6994 17.7034 33.6994 16.8141 33.1528 16.2674C32.6061 15.7208 31.7168 15.7208 31.1702 16.2674L11.6464 35.8075L3.03077 36.9661L4.18931 28.3505L22.8401 9.69966C23.3868 9.15302 23.3868 8.26372 22.8401 7.71709C22.2935 7.17046 21.4042 7.17046 20.8576 7.71709L1.88039 26.7106C1.66011 26.9309 1.52141 27.2083 1.48062 27.5101L0.0120466 38.4102C-0.0450644 38.8426 0.101793 39.275 0.411824 39.585C0.672903 39.8461 1.03189 39.993 1.39903 39.993C1.4643 39.993 1.52141 39.9848 1.58668 39.9767L12.4867 38.5081C12.7886 38.4755 13.0742 38.3368 13.2863 38.1165Z" fill="white"/>
</g>
<defs>
<clipPath id="clip0_20_239">
<rect width="40" height="40" fill="white"/>
</clipPath>
</defs>
</svg>
